<svg width="80" height="80" viewBox="0 0 80 80" fill="none" xmlns="http://www.w3.org/2000/svg">
<path d="M40 80C62.0914 80 80 62.0914 80 40C80 17.9086 62.0914 0 40 0C17.9086 0 0 17.9086 0 40C0 62.0914 17.9086 80 40 80Z" fill="url(#paint0_linear_2_14)"/>
<path fill-rule="evenodd" clip-rule="evenodd" d="M64.7999 64.7999C78.4999 51.0999 78.4999 28.9999 64.7999 15.2999C51.0999 1.5999 28.9999 1.5999 15.2999 15.2999C1.5999 28.9999 1.5999 51.0999 15.2999 64.7999C28.8999 78.3999 51.0999 78.3999 64.7999 64.7999ZM61.8999 61.8999C73.9999 49.7999 73.9999 30.1999 61.8999 18.0999C49.7999 5.9999 30.1999 5.9999 18.0999 18.0999C5.9999 30.1999 5.9999 49.7999 18.0999 61.8999C30.1999 73.9999 49.7999 73.9999 61.8999 61.8999Z" fill="white"/>
<path fill-rule="evenodd" clip-rule="evenodd" d="M47.8001 61.9C56.0001 53.7 56.0001 40.4 47.8001 32.2C39.6001 24 26.3001 24 18.1001 32.2C9.9001 40.4 9.9001 53.7 18.1001 61.9C26.3001 70.1 39.6001 70.1 47.8001 61.9ZM50.6001 64.8C40.8001 74.6 25.0001 74.6 15.2001 64.8C5.4001 55 5.4001 39.2 15.2001 29.4C25.0001 19.6 40.8001 19.6 50.6001 29.4C60.4001 39.2 60.4001 55 50.6001 64.8Z" fill="white"/>
<path fill-rule="evenodd" clip-rule="evenodd" d="M33.6 61.9C37.9 57.6 37.9 50.6 33.6 46.3C29.3 42 22.3 42 18 46.3C13.7 50.6 13.7 57.6 18 61.9C22.3 66.2 29.3 66.2 33.6 61.9ZM36.5 64.8C30.6 70.7 21.1 70.7 15.3 64.8C9.4 58.9 9.4 49.4 15.3 43.6C21.2 37.8 30.7 37.7 36.5 43.6C42.3 49.5 42.3 58.9 36.5 64.8Z" fill="white"/>
<defs>
<linearGradient id="paint0_linear_2_14" x1="39.96" y1="0.04" x2="39.96" y2="80.04" gradientUnits="userSpaceOnUse">
<stop stop-color="#4BC0CE"/>
<stop offset="1" stop-color="#4BA898"/>
</linearGradient>
</defs>
</svg>
